<?xml version="1.0" encoding="utf-8"?>
<!-- Uploaded to: SVG Repo, www.svgrepo.com, Generator: SVG Repo Mixer Tools -->
<svg width="800px" height="800px" viewBox="0 -2.43 64.06 64.06" xmlns="http://www.w3.org/2000/svg">
  <g id="Group_129" data-name="Group 129" transform="translate(-436.615 -55.295)">
    <g id="XMLID_9_">
      <g id="Group_128" data-name="Group 128">
        <path id="Path_64" data-name="Path 64" d="M500.675,83.555v22.47a4.229,4.229,0,0,1-4.22,4.23h-3.27a5.055,5.055,0,0,1-4.98,4.25h-39.12a5.055,5.055,0,0,1-4.98-4.25h-3.27a4.229,4.229,0,0,1-4.22-4.23V83.555a4.227,4.227,0,0,1,4.22-4.22h3.19V68.5a1.993,1.993,0,0,1,2-2h6.92l3.49-6.52a8.876,8.876,0,0,1,7.83-4.69h8.76a8.876,8.876,0,0,1,7.83,4.69l3.49,6.52h6.92a1.993,1.993,0,0,1,2,2v10.83h3.19A4.227,4.227,0,0,1,500.675,83.555Zm-4,22.47V92.505h-3.41v13.75h3.19A.224.224,0,0,0,496.675,106.025Zm0-17.52v-4.95a.222.222,0,0,0-.22-.22h-3.19V88.5Zm-7.41,20.93v-4.3a5.955,5.955,0,0,1-2.04.37h-37.16a5.955,5.955,0,0,1-2.04-.37v4.3a1.063,1.063,0,0,0,1.06,1.07H488.2A1.063,1.063,0,0,0,489.265,109.435Zm0-9.98V70.505h-41.24v28.95a2.044,2.044,0,0,0,2.04,2.05h37.16A2.044,2.044,0,0,0,489.265,99.455ZM479.8,66.5l-2.48-4.63a4.873,4.873,0,0,0-4.3-2.58h-8.76a4.873,4.873,0,0,0-4.3,2.58l-2.48,4.63Zm-35.78,39.75V92.5h-3.41v13.52a.224.224,0,0,0,.22.23Zm0-17.75v-5.17h-3.19a.222.222,0,0,0-.22.22V88.5Z" fill="#03373d"/>
        <path id="Path_65" data-name="Path 65" d="M496.675,92.5v13.52a.224.224,0,0,1-.22.23h-3.19V92.5Z" fill="#f2f2f2"/>
        <path id="Path_66" data-name="Path 66" d="M496.675,83.555V88.5h-3.41v-5.17h3.19A.222.222,0,0,1,496.675,83.555Z" fill="#ef472e"/>
        <path id="Path_67" data-name="Path 67" d="M489.265,105.135v4.3a1.063,1.063,0,0,1-1.06,1.07h-39.12a1.063,1.063,0,0,1-1.06-1.07v-4.3a5.955,5.955,0,0,0,2.04.37h37.16A5.956,5.956,0,0,0,489.265,105.135Z" fill="#ef472e"/>
        <path id="Path_68" data-name="Path 68" d="M489.265,70.5v28.95a2.044,2.044,0,0,1-2.04,2.05h-37.16a2.044,2.044,0,0,1-2.04-2.05V70.505h41.24ZM480.145,86a11.5,11.5,0,1,0-11.5,11.5A11.514,11.514,0,0,0,480.145,86Z" fill="#ccc"/>
        <path id="Path_69" data-name="Path 69" d="M468.645,74.5a11.5,11.5,0,1,1-11.5,11.5A11.514,11.514,0,0,1,468.645,74.5Zm7.5,11.5a7.5,7.5,0,1,0-7.5,7.5A7.5,7.5,0,0,0,476.145,86Z" fill="#03373d"/>
        <path id="Path_70" data-name="Path 70" d="M473.985,83.855v4.29H470.8v3.2h-4.3v-3.2H463.3v-4.29h3.19v-3.2h4.3v3.2Z" fill="#ef472e"/>
        <path id="Path_71" data-name="Path 71" d="M444.025,99.455v6.8h-3.19a.224.224,0,0,1-.22-.23V92.505h3.41Z" fill="#f2f2f2"/>
        <path id="Path_72" data-name="Path 72" d="M444.025,83.335V88.5h-3.41v-4.95a.222.222,0,0,1,.22-.22Z" fill="#ef472e"/>
      </g>
    </g>
  </g>
</svg>